# xmcd
#
# Track frame offsets:
# 150
# 18577
# 45646
# 72889
# 103212
# 123531
# 159367
# 181134
# 194510
# 222337
# 254907
# 288993
# 308303
# 323256
#
# Disc length: 4620 seconds
#
# Revision: 1
# Processed by: cddbd v1.5.2PL0 Copyright (c) Steve Scherf et al.
# Submitted via: CedeCatalogueitor 2.6.0.6 http://personales.ya.com/cdcatalogueitor
#
DISCID=c6120a0e
DTITLE=B.B. King - Live At The BBC
DYEAR=2009
DGENRE=
TTITLE0=Caldonia
TTITLE1=I Like To Live The Love
TTITLE2=Night Life
TTITLE3=When It All Comes Down
TTITLE4=The Thrill Is Gone
TTITLE5=I Gotta Move Out Of This Neighbourhood
TTITLE6=When Love Comes To Town
TTITLE7=Let The Good Times Roll
TTITLE8=Stormy Monday Blues
TTITLE9=Ain't Nobody Home
TTITLE10=Five Long Years
TTITLE11=How Blue Can You Get?
TTITLE12=Paying The Cost To Be The Boss
TTITLE13=The Thrill Is Gone
EXTD=
EXTT0=
EXTT1=
EXTT2=
EXTT3=
EXTT4=
EXTT5=
EXTT6=
EXTT7=
EXTT8=
EXTT9=
EXTT10=
EXTT11=
EXTT12=
EXTT13=
PLAYORDER=
